<?xml version="1.0" standalone="no"?>
<!DOCTYPE svg PUBLIC "-//W3C//DTD SVG 20010904//EN"
 "http://www.w3.org/TR/2001/REC-SVG-20010904/DTD/svg10.dtd">
<svg version="1.0" xmlns="http://www.w3.org/2000/svg"
 width="200.000000pt" height="200.000000pt" viewBox="0 0 200.000000 200.000000"
 preserveAspectRatio="xMidYMid meet">

<g transform="translate(0.000000,200.000000) scale(0.100000,-0.100000)"
fill="#000000" stroke="none">
<path d="M931 1418 c-26 -17 -80 -104 -228 -358 -192 -331 -194 -336 -190
-384 4 -42 10 -55 41 -83 19 -18 41 -33 48 -33 7 0 69 96 137 213 68 116 129
215 135 219 6 4 50 8 98 8 l87 0 64 126 65 126 -39 67 c-52 91 -78 113 -136
118 -39 4 -55 0 -82 -19z"/>
<path d="M1176 1041 c-31 -60 -61 -113 -68 -118 -7 -4 -53 -10 -102 -13 l-89
-5 -98 -165 c-54 -91 -98 -171 -98 -177 -1 -10 71 -13 327 -13 300 0 331 2
369 19 54 25 77 68 70 130 -3 36 -31 92 -121 246 -64 110 -121 201 -126 203
-5 2 -34 -46 -64 -107z"/>
</g>
</svg>
